<?xml version="1.0" standalone="no"?>
<!DOCTYPE svg PUBLIC "-//W3C//DTD SVG 20010904//EN"
 "http://www.w3.org/TR/2001/REC-SVG-20010904/DTD/svg10.dtd">
<svg version="1.0" xmlns="http://www.w3.org/2000/svg"
 width="833.000000pt" height="758.000000pt" viewBox="0 0 833.000000 758.000000"
 preserveAspectRatio="xMidYMid meet">

<g transform="translate(0.000000,758.000000) scale(0.100000,-0.100000)"
fill="currentColor" stroke="none">
<path d="M2590 7285 c-8 -2 -78 -11 -155 -20 -77 -9 -179 -25 -227 -36 -48
-10 -95 -19 -105 -19 -18 0 -104 -24 -218 -61 -33 -10 -69 -19 -80 -19 -11 0
-33 -7 -48 -15 -15 -8 -42 -19 -60 -24 -71 -22 -171 -61 -181 -71 -5 -5 -16
-10 -24 -10 -16 0 -56 -18 -207 -93 -111 -56 -153 -77 -207 -110 -20 -12 -63
-37 -95 -56 -32 -19 -60 -37 -63 -40 -3 -3 -30 -23 -60 -43 -99 -67 -143 -99
-244 -181 -122 -98 -266 -237 -266 -257 0 -17 337 -359 365 -370 16 -6 37 8
105 69 97 88 263 222 330 266 25 17 47 33 50 36 3 3 31 21 63 40 32 19 75 44
95 56 45 27 88 50 167 91 53 27 86 42 212 98 17 8 35 14 40 14 4 1 26 9 48 20
22 11 49 20 60 20 11 0 33 7 50 16 16 8 52 20 80 26 27 6 55 14 60 18 6 5 39
13 73 20 35 6 75 16 89 21 14 5 71 16 127 25 55 8 124 19 151 24 154 28 709
21 838 -10 23 -6 78 -17 122 -24 113 -20 214 -44 258 -61 20 -8 47 -15 60 -15
12 0 35 -7 50 -15 15 -8 42 -19 60 -24 71 -22 171 -61 181 -71 5 -5 16 -10 22
-10 19 0 270 -126 349 -175 39 -24 86 -53 105 -65 35 -20 162 -109 190 -133 8
-6 62 -51 120 -99 231 -191 447 -439 628 -723 71 -110 261 -494 262 -528 1 -6
9 -30 20 -52 11 -22 19 -60 20 -84 0 -39 -4 -47 -45 -83 -57 -50 -216 -170
-220 -166 -11 13 -46 93 -54 125 -11 41 -46 145 -61 178 -61 139 -130 281
-174 357 -27 47 -98 160 -108 173 -5 6 -30 39 -55 75 -113 157 -292 345 -469
490 -152 125 -250 191 -458 304 -61 34 -266 126 -280 126 -6 1 -29 9 -51 20
-22 11 -49 20 -60 20 -11 0 -38 9 -60 20 -22 11 -49 19 -60 20 -12 0 -46 9
-78 20 -31 11 -69 20 -85 20 -15 0 -55 7 -87 16 -84 21 -335 44 -492 44 -146
0 -456 -25 -482 -39 -9 -5 -52 -14 -94 -20 -43 -6 -86 -15 -95 -20 -9 -5 -43
-14 -75 -21 -32 -6 -70 -18 -85 -26 -15 -8 -36 -14 -47 -14 -11 0 -38 -9 -60
-20 -22 -11 -46 -19 -53 -20 -8 0 -26 -6 -40 -14 -15 -8 -92 -46 -172 -85 -80
-39 -163 -82 -185 -96 -22 -13 -56 -34 -75 -45 -33 -19 -128 -85 -201 -140
-41 -31 -150 -124 -206 -177 -24 -22 -43 -48 -43 -58 0 -25 348 -375 373 -375
11 0 54 31 96 68 83 74 220 180 267 206 16 9 47 28 69 41 52 32 301 155 314
155 6 0 30 8 53 19 135 59 390 112 614 128 l86 6 -7 -24 c-4 -13 -23 -48 -43
-78 -48 -70 -101 -153 -139 -216 -60 -100 -232 -449 -233 -472 -1 -4 -9 -26
-20 -48 -11 -22 -19 -46 -20 -53 0 -7 -8 -32 -19 -55 -10 -23 -22 -58 -26 -77
-4 -19 -13 -46 -20 -60 -7 -14 -16 -44 -20 -67 -4 -24 -10 -45 -15 -48 -5 -3
-11 -24 -15 -48 -4 -23 -15 -73 -25 -112 -10 -38 -21 -92 -25 -120 -3 -27 -12
-79 -20 -115 -52 -242 -54 -854 -4 -1125 5 -27 16 -92 24 -143 9 -52 19 -101
24 -110 5 -10 12 -37 16 -62 3 -25 15 -71 26 -103 10 -31 19 -65 19 -75 1 -9
9 -35 20 -57 11 -22 20 -49 20 -60 0 -11 9 -38 20 -60 11 -22 19 -46 20 -52 0
-7 10 -34 21 -60 12 -27 27 -61 34 -78 72 -166 178 -376 210 -415 6 -8 15 -22
18 -30 7 -15 24 -43 84 -136 179 -276 475 -604 733 -810 114 -91 195 -152 239
-179 9 -6 36 -24 60 -40 59 -40 112 -73 136 -86 11 -5 38 -21 60 -34 73 -44
196 -108 278 -144 26 -12 66 -30 90 -40 23 -10 53 -22 67 -26 14 -4 34 -14 45
-21 11 -8 28 -14 38 -14 11 0 33 -6 50 -14 66 -30 190 -68 241 -73 60 -6 59
-8 81 87 18 72 34 133 52 195 18 58 42 156 50 202 5 29 2 33 -23 38 -16 4 -49
14 -74 23 -25 9 -63 22 -85 28 -22 7 -60 19 -85 28 -44 16 -56 21 -151 65 -25
12 -49 21 -52 21 -8 0 -90 41 -187 92 -55 28 -110 61 -192 113 -22 14 -131 88
-143 97 -289 221 -478 410 -693 693 -9 12 -83 121 -97 143 -42 66 -82 131 -95
155 -32 59 -108 215 -129 267 -13 30 -32 73 -42 96 -11 23 -19 47 -19 53 0 6
-9 29 -20 51 -11 22 -20 47 -20 56 0 9 -7 30 -15 47 -14 31 -23 66 -66 242
-56 232 -74 396 -74 670 0 264 17 447 56 607 10 43 19 87 19 98 0 11 9 46 20
77 11 32 20 66 20 78 1 11 9 38 20 60 11 22 19 48 20 58 0 11 7 33 15 50 8 18
21 52 30 77 9 25 23 63 31 84 22 58 173 358 189 377 8 8 15 18 15 21 0 6 80
133 97 153 4 6 21 30 37 55 42 65 181 235 212 259 29 23 62 20 131 -10 23 -11
47 -19 53 -19 6 0 28 -9 48 -19 20 -11 48 -24 62 -31 14 -6 31 -20 38 -31 13
-21 20 -12 -157 -214 -23 -27 -63 -79 -128 -170 -21 -30 -98 -152 -119 -190
-6 -11 -21 -38 -34 -60 -31 -54 -72 -139 -100 -205 -12 -30 -31 -73 -41 -96
-11 -23 -19 -47 -19 -55 -1 -8 -9 -32 -20 -54 -11 -22 -19 -47 -20 -57 0 -9
-8 -40 -19 -70 -10 -29 -26 -84 -35 -123 -14 -62 -24 -113 -56 -311 -27 -168
-20 -564 13 -744 37 -200 59 -297 81 -351 9 -22 16 -50 16 -62 0 -12 9 -39 20
-60 11 -20 20 -44 20 -52 0 -8 9 -32 20 -52 11 -21 20 -43 20 -50 0 -20 163
-333 215 -413 207 -319 494 -609 808 -818 26 -18 51 -32 54 -32 4 0 14 -6 22
-14 22 -19 231 -127 321 -165 41 -18 89 -39 107 -47 17 -8 37 -14 45 -14 7 -1
31 -9 53 -20 22 -11 48 -19 57 -20 10 0 36 -7 58 -16 40 -16 42 -16 65 6 14
13 26 39 30 64 4 22 15 68 25 101 29 99 65 238 77 304 7 39 -13 61 -56 61 -14
1 -44 9 -66 20 -22 11 -46 19 -52 20 -22 0 -244 104 -331 154 -262 151 -529
390 -670 601 -26 39 -57 83 -69 98 -26 32 -30 62 -10 70 7 3 95 1 195 -3 351
-17 713 16 1017 92 22 5 65 16 95 23 62 14 143 39 212 67 26 10 52 18 59 18
12 0 114 38 174 65 17 7 55 23 85 36 64 26 227 106 285 139 22 13 57 32 77 44
77 44 153 90 158 95 3 3 30 23 60 43 317 213 623 507 861 825 46 61 98 133
114 159 17 26 37 58 45 70 8 12 30 49 48 81 18 32 37 65 42 73 24 37 190 379
190 391 0 8 9 28 20 44 11 17 20 37 20 45 0 8 9 33 20 55 11 22 19 47 20 55 0
8 9 37 19 65 35 91 66 210 116 440 41 191 68 530 62 775 -5 195 -36 476 -63
580 -8 30 -14 66 -14 80 0 15 -12 64 -26 109 -24 76 -28 82 -47 76 -12 -4 -51
-13 -86 -21 -35 -8 -71 -19 -80 -23 -9 -5 -46 -15 -81 -21 -36 -6 -69 -15 -75
-20 -5 -5 -28 -11 -50 -15 -119 -20 -131 -34 -110 -132 7 -37 19 -90 24 -118
43 -209 64 -484 56 -710 -10 -249 -69 -584 -137 -780 -6 -16 -16 -50 -23 -75
-7 -25 -20 -61 -28 -80 -8 -19 -27 -64 -42 -100 -77 -185 -126 -281 -250 -485
-95 -157 -258 -359 -414 -515 -118 -118 -319 -287 -421 -355 -25 -17 -47 -33
-50 -36 -5 -5 -81 -51 -158 -95 -20 -12 -55 -31 -77 -44 -50 -29 -135 -71
-197 -99 -27 -12 -68 -30 -92 -41 -24 -11 -49 -20 -55 -20 -6 0 -29 -9 -51
-20 -22 -11 -47 -20 -57 -20 -10 -1 -36 -9 -58 -20 -22 -11 -48 -19 -57 -20
-10 0 -44 -8 -75 -18 -82 -27 -186 -51 -295 -68 -51 -9 -120 -21 -153 -27 -80
-14 -671 -14 -750 1 -33 6 -104 17 -158 26 -54 8 -104 20 -112 26 -18 15 -45
129 -55 234 -10 102 -2 132 33 122 12 -3 56 -11 97 -17 41 -6 82 -14 90 -19
30 -16 316 -40 476 -40 158 0 329 12 434 31 30 6 82 15 115 21 33 6 89 19 125
29 36 10 81 21 100 25 19 3 47 13 62 20 15 8 35 14 45 14 10 1 36 9 58 20 22
11 46 19 53 20 7 0 30 9 50 19 20 10 98 49 172 85 74 37 153 77 175 91 22 13
56 34 75 45 33 19 125 83 201 140 228 170 465 433 645 715 66 102 234 444 234
475 0 6 8 27 19 48 10 20 21 54 25 74 4 20 13 50 21 65 8 15 15 38 15 50 0 12
7 44 16 69 9 26 22 86 30 133 8 47 18 109 24 136 5 28 14 128 19 223 12 196
-7 539 -34 626 -8 27 -15 64 -15 83 0 40 -35 144 -52 154 -6 4 -23 3 -37 -3
-14 -6 -57 -19 -96 -29 -38 -10 -106 -27 -150 -39 -44 -12 -107 -28 -140 -36
-33 -9 -65 -20 -72 -26 -17 -14 -16 -51 3 -123 24 -94 44 -287 44 -435 0 -156
-23 -397 -45 -455 -8 -22 -14 -52 -15 -67 0 -15 -9 -50 -20 -78 -11 -28 -20
-58 -20 -68 -1 -9 -9 -35 -20 -57 -11 -22 -20 -47 -20 -55 -1 -23 -124 -264
-137 -268 -12 -3 -12 -3 -93 158 -64 126 -120 225 -169 300 -20 30 -40 62 -46
71 -11 19 -86 129 -97 144 -168 220 -357 428 -503 555 -54 47 -103 90 -109 96
-34 33 -289 219 -355 259 -9 5 -38 24 -66 41 -27 17 -79 47 -115 66 -36 20
-81 44 -101 56 -58 33 -142 73 -214 102 -109 45 -157 65 -195 80 -79 30 -192
67 -280 91 -25 6 -74 20 -110 29 -36 10 -92 22 -125 28 -33 6 -82 15 -110 21
-170 35 -288 44 -605 47 -179 1 -332 1 -340 -1z m1854 -2105 c109 -106 231
-266 322 -419 34 -56 111 -213 119 -241 4 -14 14 -34 21 -45 8 -11 14 -26 14
-35 1 -8 9 -33 20 -55 11 -22 19 -50 20 -62 0 -12 9 -46 21 -74 11 -29 19 -68
17 -88 -3 -32 -7 -37 -48 -52 -25 -10 -88 -26 -140 -37 -345 -74 -627 -70
-995 12 -136 31 -150 47 -120 139 10 28 21 68 26 87 10 45 44 142 71 200 11
25 27 61 35 80 21 46 31 65 56 109 11 20 29 52 39 71 29 54 87 141 153 227 72
95 245 273 264 273 7 0 55 -40 105 -90z"/>
</g>
</svg>
