<?xml version="1.0" standalone="no"?>
<!DOCTYPE svg PUBLIC "-//W3C//DTD SVG 20010904//EN"
 "http://www.w3.org/TR/2001/REC-SVG-20010904/DTD/svg10.dtd">
<svg version="1.0" xmlns="http://www.w3.org/2000/svg"
 width="1111.000000pt" height="1111.000000pt" viewBox="0 0 1111.000000 1111.000000"
 preserveAspectRatio="xMidYMid meet">
<metadata>
Created by potrace 1.14, written by Peter Selinger 2001-2017
</metadata>
<g transform="translate(0.000000,1111.000000) scale(0.100000,-0.100000)"
fill="#000000" stroke="none">
<path d="M3449 10216 c-2 -3 -35 -7 -74 -10 -38 -4 -77 -8 -85 -11 -8 -2 -40
-6 -70 -10 -30 -3 -66 -7 -79 -10 -13 -2 -49 -7 -80 -11 -31 -3 -59 -8 -63
-11 -4 -2 -20 -6 -35 -8 -16 -2 -38 -6 -49 -9 -12 -2 -37 -7 -55 -10 -73 -12
-97 -18 -169 -37 -41 -12 -104 -30 -140 -42 -36 -12 -67 -22 -70 -22 -3 -1
-25 -5 -50 -9 -25 -5 -79 -22 -120 -39 -41 -16 -79 -30 -85 -32 -11 -2 -40
-13 -70 -25 -11 -5 -42 -16 -68 -26 -26 -9 -50 -21 -53 -25 -3 -5 -24 -13 -47
-20 -38 -10 -445 -204 -457 -218 -3 -3 -21 -14 -40 -24 -68 -34 -115 -62 -118
-69 -2 -5 -10 -8 -18 -8 -8 0 -14 -5 -14 -11 0 -5 -4 -8 -8 -5 -5 3 -18 -4
-30 -14 -12 -11 -24 -20 -28 -20 -4 0 -23 -12 -43 -27 -20 -16 -39 -27 -43
-25 -5 1 -8 -2 -8 -6 0 -5 -24 -24 -52 -42 -52 -33 -259 -187 -308 -229 -14
-11 -34 -29 -46 -39 -118 -98 -259 -231 -290 -276 l-20 -29 40 -46 c68 -76
409 -416 435 -434 19 -13 29 -14 45 -5 26 14 160 125 218 180 14 15 236 192
289 231 57 44 169 117 178 117 6 0 11 5 11 10 0 6 4 10 10 10 5 0 33 15 62 33
29 18 70 41 91 52 20 11 37 23 37 27 0 5 7 8 15 8 8 0 36 13 62 28 123 72 409
199 436 194 4 -1 7 3 7 8 0 6 9 10 20 10 11 0 20 5 20 11 0 6 7 9 15 6 8 -4
17 -2 20 3 3 4 23 11 45 15 22 4 57 15 77 24 21 10 69 26 108 35 38 10 75 22
83 28 7 6 15 8 19 5 3 -4 13 -2 22 2 9 5 32 12 51 15 65 11 94 17 102 22 4 3
18 7 30 10 43 8 83 15 108 19 14 2 41 6 60 10 19 3 51 8 70 10 19 2 46 7 60
10 85 20 245 28 520 28 230 0 455 -8 535 -18 22 -3 51 -5 64 -5 12 0 28 -3 35
-7 6 -4 16 -8 21 -9 6 -1 24 -4 40 -7 17 -4 46 -9 65 -12 19 -3 60 -10 90 -16
30 -6 64 -12 75 -14 11 -2 20 -4 20 -5 0 -1 11 -3 25 -6 53 -8 143 -34 220
-62 8 -3 22 -4 31 -3 9 1 38 -8 65 -19 45 -20 117 -45 169 -60 25 -7 149 -61
159 -69 6 -5 28 -14 48 -20 50 -16 388 -188 412 -209 10 -10 20 -16 22 -14 5
3 57 -29 65 -41 3 -5 8 -7 10 -6 2 2 29 -13 59 -32 30 -19 70 -44 88 -54 17
-11 32 -23 32 -27 0 -4 4 -8 10 -8 12 0 134 -88 138 -101 2 -5 8 -9 13 -9 5 0
19 -9 32 -20 39 -36 51 -46 112 -95 33 -27 72 -61 88 -77 15 -15 27 -25 27
-22 0 3 60 -54 133 -128 111 -111 164 -169 272 -295 6 -6 21 -26 35 -44 14
-18 30 -37 35 -43 34 -36 275 -378 275 -391 0 -2 22 -41 48 -87 26 -46 54 -98
61 -115 7 -18 17 -33 22 -33 5 0 9 -6 9 -12 0 -7 27 -67 60 -132 33 -66 60
-126 60 -133 0 -7 5 -13 10 -13 6 0 10 -6 10 -13 0 -7 8 -31 19 -53 38 -81 84
-230 84 -276 1 -44 -3 -51 -44 -88 -60 -56 -291 -230 -304 -230 -5 0 -16 15
-24 33 -7 17 -19 46 -26 62 -7 17 -21 55 -30 85 -29 93 -77 222 -108 290 -75
162 -149 312 -176 359 -17 28 -27 51 -23 51 4 0 2 4 -3 8 -14 10 -65 90 -65
102 0 5 -4 10 -10 10 -5 0 -10 5 -10 11 0 9 -75 125 -90 139 -3 3 -17 21 -30
40 -13 19 -30 41 -37 48 -7 7 -13 17 -13 20 0 4 -10 19 -22 32 -13 14 -48 55
-78 90 -30 36 -60 71 -67 78 -7 7 -13 18 -13 23 0 5 -7 9 -15 9 -8 0 -15 4
-15 8 0 11 -191 203 -266 267 -32 28 -69 60 -82 73 -14 12 -28 22 -31 22 -3 0
-19 13 -36 28 -65 60 -225 174 -355 253 -148 91 -336 190 -344 182 -3 -4 -6
-1 -6 5 0 7 -3 11 -7 10 -7 -2 -59 20 -137 58 -16 8 -35 14 -43 14 -7 0 -13 5
-13 12 0 6 -3 9 -6 6 -3 -3 -29 3 -57 14 -29 11 -74 27 -102 35 -27 9 -75 25
-105 37 -30 11 -64 22 -75 23 -11 2 -44 10 -72 18 -29 9 -56 16 -60 16 -5 1
-19 6 -33 11 -13 5 -43 11 -65 13 -22 2 -60 8 -85 14 -107 24 -237 40 -450 56
-79 6 -378 6 -440 1 -25 -3 -90 -7 -145 -11 -55 -3 -116 -8 -135 -11 -96 -13
-119 -17 -170 -29 -30 -8 -75 -17 -100 -20 -52 -7 -85 -13 -85 -15 0 -1 -8 -3
-18 -5 -32 -6 -131 -35 -207 -61 -41 -14 -86 -26 -100 -28 -14 -1 -45 -11 -70
-23 -25 -11 -58 -23 -73 -27 -31 -7 -459 -215 -467 -226 -3 -4 -16 -11 -29
-15 -14 -4 -29 -12 -35 -17 -13 -11 -79 -52 -86 -53 -15 -3 -110 -69 -110 -76
0 -5 -7 -9 -15 -9 -8 0 -15 -4 -15 -10 0 -5 -5 -10 -11 -10 -10 0 -54 -32
-174 -124 -22 -17 -44 -36 -50 -42 -5 -6 -37 -33 -69 -60 -63 -52 -129 -115
-159 -151 -30 -35 -20 -48 218 -288 191 -191 253 -245 274 -238 15 6 170 127
216 170 11 10 32 27 46 38 129 98 179 134 209 151 19 10 37 22 40 25 6 7 22
16 140 76 46 24 88 47 94 52 6 5 13 9 16 9 3 0 48 20 100 45 90 43 292 122
335 132 11 2 70 17 130 33 61 16 113 29 118 30 4 1 22 4 40 7 17 3 46 7 62 10
17 3 50 8 75 11 25 3 59 8 75 10 34 7 51 8 182 19 50 4 96 4 101 1 7 -4 5 -18
-6 -39 -17 -35 -101 -169 -111 -177 -10 -8 -31 -44 -37 -62 -4 -10 -10 -18
-15 -18 -5 0 -9 -4 -9 -10 0 -5 -17 -36 -37 -67 -55 -84 -153 -272 -152 -290
1 -3 -3 -9 -8 -12 -10 -7 -131 -253 -163 -332 -12 -30 -27 -65 -33 -79 -6 -14
-11 -27 -12 -30 -1 -3 -4 -12 -8 -20 -13 -32 -59 -167 -72 -210 -7 -25 -23
-70 -34 -101 -11 -31 -23 -75 -27 -98 -4 -23 -10 -41 -14 -41 -8 0 -20 -41
-25 -85 -2 -11 -14 -67 -28 -125 -14 -58 -28 -121 -31 -140 -3 -19 -8 -48 -12
-65 -3 -16 -7 -46 -9 -65 -2 -19 -4 -35 -5 -35 -3 0 -11 -40 -20 -100 -27
-179 -34 -311 -34 -670 1 -359 5 -475 18 -475 4 0 3 -6 -3 -13 -6 -8 -9 -16
-6 -19 3 -2 7 -34 10 -70 3 -36 8 -76 11 -89 3 -13 7 -40 9 -59 3 -32 7 -56
20 -115 3 -11 7 -36 9 -55 8 -58 23 -129 50 -235 14 -55 27 -109 29 -120 2
-11 6 -27 9 -35 13 -39 27 -88 33 -120 4 -19 16 -55 27 -80 11 -25 22 -56 24
-70 6 -31 78 -225 111 -300 14 -30 32 -71 40 -90 20 -46 211 -429 226 -455 7
-11 25 -39 40 -62 15 -24 27 -47 27 -53 0 -5 3 -10 8 -10 7 0 21 -22 44 -73 7
-15 16 -27 20 -27 4 0 8 -7 8 -15 0 -8 5 -15 10 -15 6 0 10 -7 10 -15 0 -8 4
-15 8 -15 5 0 14 -10 19 -22 6 -13 18 -32 27 -43 8 -11 50 -67 93 -125 42 -58
81 -110 87 -116 6 -7 22 -26 36 -44 122 -155 393 -441 546 -577 97 -85 117
-102 174 -146 30 -23 57 -44 60 -47 19 -20 142 -110 150 -110 5 0 10 -4 10 -9
0 -6 18 -20 40 -32 22 -13 40 -26 40 -30 0 -4 8 -9 18 -12 9 -4 64 -38 122
-77 58 -39 112 -73 120 -77 8 -4 38 -20 65 -36 106 -63 405 -217 420 -217 3 0
34 -14 68 -31 34 -17 63 -30 64 -30 7 1 43 -13 88 -34 28 -12 64 -26 80 -29
31 -7 128 -42 155 -56 9 -4 31 -11 50 -16 19 -4 38 -9 43 -10 4 -1 9 -3 12 -4
3 -1 10 -4 15 -5 6 -1 11 -3 13 -5 6 -5 47 -11 104 -17 62 -5 63 -5 74 23 6
16 13 40 15 53 7 34 61 235 81 301 9 30 18 60 19 65 0 6 2 13 4 18 3 8 3 7 15
62 10 48 12 54 15 58 1 1 4 25 7 53 l4 51 -163 52 c-90 29 -172 56 -183 61
-11 4 -36 14 -55 21 -19 7 -65 27 -103 45 -37 18 -84 38 -105 44 -44 15 -360
176 -383 196 -8 8 -19 14 -23 14 -23 0 -412 271 -451 314 -5 6 -27 24 -48 40
-21 15 -51 40 -66 55 -16 14 -54 49 -86 76 -75 64 -233 223 -310 310 -33 37
-70 80 -83 94 -13 14 -35 42 -50 61 -15 19 -29 37 -32 40 -4 3 -19 23 -36 45
-16 22 -33 45 -39 51 -5 6 -19 23 -30 38 -11 16 -26 34 -32 41 -7 8 -13 16
-13 19 0 4 -25 42 -55 86 -30 44 -55 84 -55 89 0 5 -4 11 -8 13 -15 6 -99 156
-183 328 -68 139 -169 371 -169 387 0 6 -11 35 -25 65 -14 29 -25 61 -25 71 0
11 -6 33 -14 50 -24 55 -46 129 -40 138 3 5 0 9 -7 9 -7 0 -10 3 -7 6 3 3 -1
31 -9 62 -8 31 -17 64 -19 72 -2 8 -8 33 -14 55 -5 22 -13 56 -16 75 -3 19 -8
38 -10 41 -2 4 -6 24 -10 45 -3 22 -12 71 -18 110 -7 39 -12 83 -11 98 0 14
-2 26 -6 26 -4 0 -7 10 -7 23 0 72 -11 217 -17 228 -6 8 -4 10 4 4 10 -5 11
-3 4 11 -7 15 -11 479 -3 479 1 0 3 43 6 95 4 95 10 161 14 170 1 3 2 9 1 13
-1 7 8 65 24 162 12 68 28 131 38 143 6 8 6 12 -2 12 -7 0 -8 8 -2 23 5 13 12
39 15 58 11 64 15 81 26 93 5 7 7 15 5 18 -3 3 -1 17 5 32 5 15 12 37 14 49
13 61 17 74 33 114 10 24 21 43 25 43 3 0 4 9 1 19 -3 11 6 45 20 75 14 31 23
56 20 56 -3 0 -1 6 4 13 5 6 22 48 38 92 29 82 244 522 267 547 7 7 22 29 32
48 10 19 32 54 48 78 15 24 28 46 28 51 0 4 8 16 18 27 9 11 41 55 71 99 46
68 113 157 131 175 3 3 30 34 60 70 102 121 119 133 176 124 21 -3 44 -7 49
-7 6 -1 12 -5 15 -8 6 -7 89 -40 111 -44 38 -8 170 -80 184 -101 13 -20 12
-26 -17 -66 -30 -42 -125 -154 -180 -212 -62 -66 -263 -356 -319 -461 -12 -22
-24 -42 -28 -45 -3 -3 -15 -23 -27 -45 -11 -22 -34 -67 -52 -100 -27 -52 -93
-191 -97 -205 -4 -12 -26 -67 -35 -85 -19 -41 -34 -82 -44 -122 -3 -10 -5 -19
-6 -20 -2 -2 -3 -6 -4 -10 -1 -5 -8 -19 -15 -31 -7 -13 -15 -36 -17 -50 -3
-15 -12 -49 -21 -77 -9 -27 -18 -54 -19 -60 -6 -28 -47 -182 -51 -195 -4 -8
-5 -18 -5 -23 1 -4 -2 -26 -7 -50 -5 -23 -12 -62 -16 -87 -3 -25 -13 -81 -20
-125 -21 -116 -24 -145 -31 -295 -8 -180 -8 -197 2 -400 4 -96 8 -192 9 -212
0 -21 2 -38 5 -38 3 0 6 -8 6 -17 1 -27 13 -119 18 -135 3 -7 7 -26 10 -43 2
-16 11 -64 20 -105 8 -41 17 -86 20 -100 9 -43 15 -71 21 -90 3 -10 8 -27 10
-37 2 -10 13 -43 24 -73 12 -30 21 -63 21 -74 0 -28 22 -86 33 -86 5 0 7 -7 3
-15 -3 -8 -1 -15 4 -15 6 0 9 -3 9 -7 -1 -5 0 -10 1 -13 3 -10 11 -45 12 -57
1 -7 5 -13 10 -13 4 0 8 -9 8 -20 0 -11 4 -20 9 -20 5 0 12 -15 16 -33 7 -34
224 -466 245 -487 3 -3 14 -21 24 -40 26 -46 170 -252 201 -286 5 -7 21 -26
35 -44 140 -177 448 -487 576 -579 19 -13 34 -28 34 -33 0 -4 4 -8 10 -8 9 0
35 -18 64 -46 21 -19 236 -164 244 -164 5 0 18 -9 30 -20 12 -12 22 -17 22
-13 0 4 4 4 8 -2 4 -5 17 -16 30 -23 39 -22 315 -159 362 -180 25 -11 68 -29
95 -42 28 -12 75 -30 105 -40 30 -10 73 -26 95 -35 22 -10 54 -20 70 -22 17
-3 45 -11 64 -19 90 -37 119 1 158 208 3 16 10 28 15 28 5 0 7 3 4 8 -2 4 9
55 25 112 16 58 32 118 35 134 3 16 7 33 9 36 3 4 7 25 11 45 3 21 7 47 10 58
9 51 -11 75 -69 83 -15 2 -56 14 -90 28 -34 13 -84 31 -112 41 -132 47 -525
255 -591 313 -5 5 -30 22 -54 38 -24 16 -57 41 -74 56 -16 15 -31 26 -33 24
-2 -2 -24 15 -49 38 -24 22 -61 55 -81 71 -41 34 -237 228 -268 266 -11 13
-38 47 -61 74 -22 28 -65 86 -95 130 -30 44 -62 88 -71 99 -10 11 -18 26 -18
33 0 7 -5 13 -10 13 -12 0 -9 45 4 57 8 9 166 11 166 3 0 -3 146 -5 325 -5
179 0 325 2 325 5 0 3 19 6 43 6 23 0 74 4 112 8 96 9 132 14 265 31 19 3 49
7 65 9 17 2 30 5 30 6 0 1 14 4 30 6 17 3 64 12 105 21 89 20 75 17 130 28 50
10 57 11 68 15 4 2 12 4 17 5 6 2 12 4 15 5 3 1 16 3 30 6 14 2 49 11 77 19
29 9 55 16 58 16 2 0 49 16 102 36 54 19 114 39 133 45 19 5 42 12 50 15 8 3
21 7 28 9 8 1 21 6 30 10 9 4 19 8 22 9 18 6 241 101 300 127 62 28 253 123
320 161 30 16 64 35 75 41 11 6 22 14 25 17 3 3 19 12 35 21 53 27 100 53 105
59 3 3 26 19 53 37 99 67 142 97 152 104 6 5 58 44 116 87 58 43 116 87 130
99 13 11 47 39 74 62 182 153 474 444 566 565 13 17 29 35 35 40 45 41 269
342 349 469 10 17 23 33 27 34 4 2 8 12 8 22 0 10 4 20 8 22 11 4 152 256 182
325 13 29 27 53 32 53 4 0 8 6 8 13 0 7 21 55 46 106 44 90 92 196 94 206 2
13 14 41 20 45 11 9 142 383 155 444 1 6 5 18 8 26 6 16 36 133 42 165 2 11 8
38 14 60 5 22 12 51 14 65 3 14 10 43 15 65 6 22 13 56 16 76 3 20 7 42 10 50
3 8 7 33 10 57 3 24 8 47 11 53 4 5 1 9 -6 9 -8 0 -8 4 -1 13 6 7 13 39 16 72
3 33 9 87 12 120 4 33 7 88 8 122 1 35 3 63 6 63 10 0 14 511 5 615 -2 33 -7
85 -9 115 -7 95 -23 245 -26 245 -1 0 -3 16 -5 35 -4 52 -15 117 -32 195 -8
39 -17 88 -20 110 -2 22 -10 60 -18 85 -7 25 -13 48 -13 53 -4 32 -28 95 -43
111 -17 18 -20 18 -86 2 -37 -10 -75 -19 -83 -21 -9 -2 -54 -14 -100 -29 -47
-14 -96 -27 -110 -29 -14 -2 -56 -13 -95 -24 -38 -12 -95 -27 -125 -35 -47
-11 -57 -18 -71 -48 -10 -19 -15 -39 -12 -43 2 -4 6 -22 9 -40 2 -18 6 -43 9
-57 12 -52 17 -76 20 -100 2 -14 5 -25 6 -25 1 0 3 -9 4 -20 2 -11 6 -33 9
-50 21 -102 46 -306 50 -415 1 -31 4 -60 7 -65 2 -6 4 -65 4 -132 0 -68 4
-123 8 -123 5 0 5 -5 2 -11 -4 -5 -8 -59 -10 -119 -3 -101 -7 -158 -22 -285
-3 -27 -7 -61 -8 -75 -2 -14 -4 -25 -5 -25 -1 0 -3 -13 -5 -30 -5 -55 -22
-160 -25 -160 -1 0 -4 -13 -5 -30 -4 -34 -13 -81 -21 -107 -3 -10 -7 -30 -10
-45 -4 -29 -18 -85 -35 -140 -6 -18 -12 -42 -14 -54 -2 -12 -16 -58 -31 -103
-14 -44 -27 -88 -29 -96 -3 -15 -30 -90 -46 -125 -4 -11 -36 -85 -70 -165 -75
-177 -210 -443 -255 -501 -5 -8 -21 -35 -35 -61 -13 -27 -27 -48 -30 -48 -4 0
-9 -8 -13 -17 -7 -24 -24 -49 -62 -95 -5 -7 -13 -20 -16 -28 -8 -19 -162 -216
-226 -289 -26 -30 -65 -74 -87 -100 -57 -64 -251 -257 -321 -317 -188 -163
-357 -295 -472 -369 -73 -47 -123 -75 -132 -75 -5 0 -10 -4 -10 -9 0 -5 -12
-14 -27 -20 -16 -6 -50 -24 -78 -41 -107 -65 -367 -190 -392 -189 -3 1 -9 -3
-12 -8 -5 -8 -92 -46 -98 -44 -3 1 -6 0 -20 -4 -5 -1 -30 -11 -56 -23 -27 -12
-62 -24 -79 -27 -16 -3 -47 -14 -67 -24 -32 -17 -52 -22 -126 -36 -11 -2 -39
-10 -63 -19 -23 -8 -46 -16 -50 -16 -4 0 -25 -5 -47 -11 -84 -23 -171 -41
-197 -41 -16 0 -28 -4 -28 -8 0 -4 -10 -8 -22 -8 -24 0 -93 -9 -93 -12 0 -1
-18 -3 -40 -6 -22 -2 -47 -7 -55 -11 -22 -9 -138 -16 -277 -17 -68 -1 -123 -3
-123 -6 0 -3 -9 -6 -20 -6 -11 0 -20 3 -20 6 0 3 -28 4 -62 2 -35 -2 -69 -3
-75 -3 -29 2 -40 2 -80 -1 -22 -2 -40 -1 -38 2 2 3 -61 6 -138 6 -154 2 -216
6 -234 17 -6 4 -15 3 -18 -3 -5 -7 -11 -8 -19 -1 -6 5 -31 12 -56 15 -25 2
-45 5 -45 6 0 2 -24 7 -72 14 -54 8 -95 16 -116 22 -21 6 -44 49 -52 95 -3 18
-9 36 -13 39 -4 3 -7 16 -8 30 0 14 -4 48 -8 75 -14 97 -17 161 -11 204 l7 44
51 -7 c29 -4 61 -9 72 -11 11 -3 37 -7 59 -10 21 -3 73 -14 115 -25 42 -10
110 -21 151 -25 41 -3 88 -8 105 -10 165 -24 646 -18 853 11 88 12 108 15 122
19 8 2 31 7 50 9 51 7 88 15 155 32 33 9 71 18 85 20 58 12 212 54 231 64 11
6 30 13 41 15 32 7 87 26 116 41 15 8 33 14 40 14 7 0 43 14 80 32 37 18 70
31 75 30 4 -1 7 3 7 9 0 5 4 8 9 4 5 -3 12 -1 16 4 6 10 183 98 199 99 5 0 12
4 15 9 10 13 49 33 66 33 8 0 15 4 15 8 0 5 18 17 40 27 22 10 40 22 40 27 0
4 5 8 11 8 23 0 336 217 434 302 116 99 285 265 285 279 0 6 5 7 10 4 6 -3 10
-3 10 2 0 4 19 29 43 55 64 71 78 88 129 153 27 33 53 66 60 74 44 52 208 287
234 336 23 44 40 71 53 88 8 9 11 17 6 17 -4 0 -3 6 3 13 21 25 120 226 114
231 -3 3 0 6 6 6 6 0 13 13 17 29 3 16 13 35 21 42 8 6 14 16 14 21 0 6 7 25
15 44 8 19 22 49 30 68 8 19 15 43 15 55 0 12 5 21 10 21 6 0 10 7 10 16 0 9
6 30 14 47 13 29 24 67 32 108 2 8 10 28 18 44 8 16 13 32 10 37 -3 4 0 8 6 8
6 0 8 4 5 10 -3 5 -1 29 6 52 6 24 12 48 14 53 1 6 5 17 8 25 3 8 11 40 17 70
5 30 13 66 16 80 3 14 7 41 9 60 2 19 7 46 10 60 53 235 52 889 -2 1150 -19
90 -21 102 -28 160 -5 42 -19 95 -32 130 -4 8 -7 17 -7 20 -1 3 -7 15 -14 28
-11 18 -20 22 -45 18 -18 -2 -33 -5 -34 -6 -2 -2 -6 -3 -10 -5 -5 -1 -15 -4
-23 -8 -14 -6 -81 -24 -122 -33 -30 -7 -52 -12 -85 -23 -18 -5 -33 -7 -33 -4
0 3 -7 0 -15 -7 -9 -7 -18 -10 -22 -7 -3 4 -12 2 -19 -4 -8 -6 -21 -9 -29 -5
-8 3 -15 2 -15 -2 0 -4 -28 -14 -62 -21 -81 -18 -159 -47 -170 -63 -11 -18
-10 -71 2 -102 5 -15 12 -41 14 -59 2 -17 7 -41 9 -52 3 -11 8 -40 11 -65 3
-25 8 -55 10 -67 20 -103 28 -502 12 -668 -4 -49 -9 -106 -11 -125 -5 -56 -24
-162 -35 -200 -14 -43 -18 -63 -26 -113 -3 -22 -14 -62 -25 -90 -11 -28 -18
-56 -15 -64 3 -7 0 -13 -6 -13 -6 0 -8 -3 -5 -7 4 -3 2 -11 -3 -18 -5 -6 -11
-20 -13 -31 -2 -10 -10 -32 -17 -49 -7 -16 -15 -36 -17 -42 -1 -7 -5 -19 -6
-25 -8 -26 -21 -53 -29 -58 -4 -3 -9 -16 -11 -29 -2 -12 -8 -26 -13 -29 -5 -4
-10 -14 -12 -22 -2 -8 -20 -44 -40 -80 -20 -36 -35 -66 -34 -68 2 -1 -4 -9
-12 -17 -8 -8 -16 -19 -18 -25 -6 -20 -34 1 -48 35 -8 19 -17 35 -22 35 -4 0
-7 3 -6 8 2 9 -28 74 -39 85 -4 5 -8 12 -8 15 -2 23 -193 364 -207 370 -5 2
-8 8 -8 13 0 6 -22 43 -50 84 -27 41 -50 78 -50 83 0 5 -9 17 -20 27 -11 10
-20 24 -20 32 0 7 -4 13 -8 13 -5 0 -15 12 -23 28 -8 15 -18 32 -24 38 -5 6
-19 23 -30 38 -11 16 -35 44 -52 65 -18 20 -33 39 -33 42 0 3 -10 17 -22 31
-13 14 -39 44 -58 67 -19 24 -44 53 -55 66 -11 13 -38 45 -60 71 -60 71 -330
341 -415 414 -41 36 -82 73 -91 82 -10 9 -69 55 -131 102 -62 47 -118 90 -125
96 -7 5 -15 10 -18 10 -4 0 -12 6 -19 13 -8 6 -24 19 -36 27 -12 8 -48 34 -81
58 -32 23 -63 42 -68 42 -5 0 -11 3 -13 8 -4 9 -107 72 -119 72 -5 0 -9 4 -9
8 0 4 -12 13 -27 20 -16 6 -62 31 -103 54 -141 78 -175 96 -235 126 -77 38
-153 72 -160 72 -3 0 -27 9 -53 21 -110 49 -210 90 -257 105 -22 7 -69 24
-105 37 -36 13 -67 24 -70 24 -3 0 -30 7 -60 16 -108 33 -236 68 -275 76 -22
5 -74 16 -115 24 -118 25 -143 29 -172 31 -16 0 -28 4 -28 8 0 4 -8 7 -17 6
-10 0 -39 4 -64 9 -25 5 -57 9 -72 9 -15 -1 -27 1 -27 4 0 3 -12 6 -27 6 -16
1 -64 5 -108 8 -90 7 -910 18 -916 12z m2407 -2741 c32 -27 71 -65 88 -84 17
-18 51 -54 75 -80 54 -56 231 -287 231 -301 0 -5 4 -10 9 -10 5 0 13 -9 16
-20 3 -11 12 -26 19 -32 27 -29 206 -359 206 -382 0 -2 16 -39 35 -80 19 -42
35 -82 35 -89 0 -7 9 -31 20 -52 12 -22 23 -57 25 -77 2 -21 9 -47 15 -58 6
-11 8 -20 4 -20 -3 0 -1 -6 5 -14 18 -21 32 -115 23 -150 -5 -20 -87 -61 -137
-69 -16 -3 -61 -13 -100 -22 -90 -22 -98 -23 -170 -34 -192 -30 -255 -35 -450
-35 -186 -1 -317 8 -430 28 -22 3 -53 8 -70 10 -16 3 -66 12 -110 21 -44 9
-90 19 -101 21 -58 11 -152 46 -166 61 -23 26 -15 80 31 228 22 72 41 132 42
135 1 3 4 12 7 20 2 8 19 49 36 90 17 41 29 78 28 83 -1 4 3 7 8 7 6 0 10 4
10 9 0 5 9 29 20 55 12 25 19 47 18 49 -2 2 5 11 15 21 9 10 17 24 17 32 0 8
5 14 10 14 6 0 10 5 10 11 0 6 25 54 55 106 30 53 55 99 55 103 0 5 7 10 15
14 8 3 15 12 15 21 0 8 4 15 9 15 5 0 12 8 15 18 4 10 14 27 24 38 10 10 29
35 42 55 25 36 92 118 139 168 13 14 31 35 40 46 36 44 192 186 201 183 5 -2
34 -25 66 -53z"/>
</g>
</svg>
